<?xml version="1.0" encoding="utf-8"?>
<!-- Generator: Adobe Illustrator 16.0.0, SVG Export Plug-In . SVG Version: 6.00 Build 0)  -->
<!DOCTYPE svg PUBLIC "-//W3C//DTD SVG 1.1 Tiny//EN" "http://www.w3.org/Graphics/SVG/1.1/DTD/svg11-tiny.dtd">
<svg version="1.1" baseProfile="tiny" id="Capa_1" xmlns="http://www.w3.org/2000/svg" xmlns:xlink="http://www.w3.org/1999/xlink"
	 x="0px" y="0px" width="361.92px" height="390.721px" viewBox="0 0 361.92 390.721" xml:space="preserve">
<g>
	<g>
		<path fill="none" d="M307.176,368.08c12.078,0,22-9.842,22-22c0-12.16-9.922-22-22-22c-12.082,0-22,9.922-22,22
			C285.176,358.162,295.094,368.08,307.176,368.08z"/>
		<path fill="none" d="M80.535,212.643c0,12.398,10.078,22.559,22.559,22.559h214.48c12.402,0,22.563-10.082,22.563-22.641v-80.879
			L80.535,95.919V212.643z"/>
		<path fill="none" d="M134.855,368.08c12.079,0,22-9.842,22-22c0-12.16-9.921-22-22-22c-12.082,0-22,9.922-22,22
			C112.855,358.162,122.773,368.08,134.855,368.08z"/>
		<path d="M361.574,120.4c0-0.161-0.078-0.321-0.078-0.481c-0.082-0.16-0.082-0.32-0.16-0.559c-0.082-0.16-0.082-0.32-0.16-0.48
			c-0.082-0.16-0.082-0.32-0.16-0.48c-0.082-0.161-0.16-0.321-0.242-0.559c-0.078-0.16-0.16-0.32-0.238-0.402l-0.238-0.48
			c-0.082-0.156-0.16-0.238-0.242-0.398c-0.078-0.16-0.238-0.321-0.32-0.481c-0.078-0.16-0.16-0.238-0.32-0.398
			c-0.078-0.16-0.238-0.242-0.32-0.403c-0.078-0.16-0.238-0.238-0.32-0.398c-0.078-0.16-0.238-0.238-0.32-0.32l-0.398-0.399
			c-0.16-0.082-0.238-0.242-0.398-0.32c-0.16-0.082-0.32-0.242-0.48-0.32c-0.16-0.082-0.242-0.161-0.402-0.243
			c-0.16-0.078-0.32-0.16-0.477-0.32l-0.961-0.476l-0.48-0.243c-0.16-0.078-0.32-0.078-0.48-0.16c-0.16-0.078-0.398-0.16-0.559-0.16
			s-0.32-0.078-0.402-0.078c-0.238-0.082-0.398-0.082-0.641-0.082c-0.078,0-0.16-0.078-0.32-0.078l-271.84-37.52V36.239
			c0-0.398,0-0.8-0.078-1.121c0-0.078,0-0.16-0.082-0.316c0-0.242-0.078-0.481-0.078-0.723c-0.078-0.238-0.078-0.398-0.16-0.64
			c0-0.161-0.078-0.239-0.078-0.399l-0.242-0.719c0-0.082-0.079-0.242-0.079-0.32c-0.082-0.242-0.16-0.402-0.32-0.641
			c-0.082-0.082-0.082-0.242-0.16-0.32c-0.082-0.16-0.16-0.32-0.32-0.48c-0.082-0.16-0.161-0.239-0.243-0.399
			c-0.078-0.16-0.16-0.242-0.238-0.402c-0.082-0.16-0.238-0.32-0.32-0.481l-0.719-0.718l-0.242-0.239
			c-0.16-0.16-0.32-0.32-0.559-0.48c-0.082-0.082-0.242-0.16-0.32-0.242c-0.16-0.16-0.32-0.239-0.48-0.399
			c-0.239-0.16-0.481-0.32-0.641-0.398c-0.078-0.082-0.16-0.082-0.238-0.16c-0.321-0.16-0.719-0.321-1.039-0.481L15.016,1.36
			C9.496-0.96,3.176,1.599,0.855,7.118C0.275,8.499,0,9.928,0,11.332v0.005c0,4.214,2.475,8.201,6.613,9.941L58.934,43.36v236.642
			c0,22.398,16.8,40.957,38.48,43.758c-3.918,6.561-6.238,14.242-6.238,22.402c0,24.076,19.597,43.598,43.597,43.598
			s43.602-19.598,43.602-43.598c0-8-2.16-15.602-6-22h97.121c-3.84,6.48-6,14-6,22c0,24.076,19.598,43.598,43.598,43.598
			s43.602-19.598,43.602-43.598s-19.602-43.602-43.602-43.602h-204c-12.481,0-22.559-10.16-22.559-22.559v-29.281
			c6.559,3.84,14.32,6.082,22.559,6.082h214.48c24.32,0,44.16-19.844,44.16-44.16v-91.203c0-0.161,0-0.321-0.078-0.481
			C361.656,120.802,361.574,120.56,361.574,120.4z M307.176,324.08c12.078,0,22,9.84,22,22c0,12.158-9.922,22-22,22
			c-12.082,0-22-9.918-22-22C285.176,334.002,295.094,324.08,307.176,324.08z M134.855,324.08c12.079,0,22,9.84,22,22
			c0,12.158-9.921,22-22,22c-12.082,0-22-9.918-22-22C112.855,334.002,122.773,324.08,134.855,324.08z M340.137,212.561
			c0,12.559-10.16,22.641-22.563,22.641h-214.48c-12.481,0-22.559-10.16-22.559-22.559V95.919l259.602,35.762V212.561z"/>
	</g>
</g>
</svg>
