<?xml version="1.0" encoding="utf-8"?>
<!-- Generator: Adobe Illustrator 16.0.0, SVG Export Plug-In . SVG Version: 6.00 Build 0)  -->
<!DOCTYPE svg PUBLIC "-//W3C//DTD SVG 1.1 Tiny//EN" "http://www.w3.org/Graphics/SVG/1.1/DTD/svg11-tiny.dtd">
<svg version="1.1" baseProfile="tiny" id="Capa_1" xmlns="http://www.w3.org/2000/svg" xmlns:xlink="http://www.w3.org/1999/xlink"
	 x="0px" y="0px" width="823.823px" height="294.65px" viewBox="0 0 823.823 294.65" xml:space="preserve">
<g>
	<path fill="none" d="M675.992,269.004c0,1.296,0.502,2.284,1.504,2.965c1.003,0.68,2.396,1.02,4.181,1.02
		c1.785,0,3.346-0.502,4.683-1.506c1.336-1.004,2.005-2.349,2.005-4.033v-2.235h-6.309
		C678.014,265.214,675.992,266.478,675.992,269.004z"/>
	<path fill="none" d="M520.664,257.773c-1.584,1.624-2.375,3.722-2.375,6.292c0,2.571,0.791,4.669,2.375,6.293
		c1.583,1.624,3.595,2.436,6.035,2.436s4.457-0.812,6.048-2.436c1.592-1.624,2.388-3.722,2.388-6.293
		c0-2.57-0.796-4.668-2.388-6.292c-1.591-1.624-3.607-2.437-6.048-2.437S522.247,256.149,520.664,257.773z"/>
	<polygon fill="none" points="29.871,245.986 42.967,234.683 41.923,234.683 	"/>
	<polygon fill="none" points="29.985,257.701 56.655,234.683 54.529,234.683 	"/>
	<path fill="none" d="M600.702,270.372c1.54,1.615,3.411,2.422,5.611,2.422s4.12-0.799,5.758-2.397s2.457-3.669,2.457-6.209
		s-0.803-4.65-2.408-6.33c-1.605-1.681-3.524-2.521-5.758-2.521s-4.12,0.84-5.66,2.521c-1.54,1.68-2.311,3.782-2.311,6.306
		C598.392,266.687,599.162,268.756,600.702,270.372z"/>
	<path fill="none" d="M736.736,257.773c-1.584,1.624-2.375,3.722-2.375,6.292c0,2.571,0.791,4.669,2.375,6.293
		c1.583,1.624,3.595,2.436,6.035,2.436s4.457-0.812,6.048-2.436c1.592-1.624,2.388-3.722,2.388-6.293
		c0-2.57-0.796-4.668-2.388-6.292c-1.591-1.624-3.607-2.437-6.048-2.437S738.319,256.149,736.736,257.773z"/>
	<path fill="none" d="M781.426,269.004c0,1.296,0.502,2.284,1.504,2.965c1.003,0.68,2.396,1.02,4.181,1.02
		c1.785,0,3.346-0.502,4.683-1.506c1.336-1.004,2.005-2.349,2.005-4.033v-2.235h-6.309
		C783.447,265.214,781.426,266.478,781.426,269.004z"/>
	<path fill="none" d="M717.056,257.875c-1.535-1.692-3.424-2.538-5.669-2.538s-4.167,0.846-5.767,2.538
		c-1.6,1.691-2.399,3.804-2.399,6.337s0.815,4.597,2.448,6.19c1.633,1.595,3.555,2.392,5.767,2.392s4.085-0.805,5.62-2.415
		c1.534-1.611,2.302-3.675,2.302-6.191C719.357,261.669,718.59,259.566,717.056,257.875z"/>
	<path fill="#02070C" d="M514.475,204.946c-3.43,2.482-7.662,3.715-12.646,3.715c-8.857,0-20.622-3.284-35.286-9.823l4.188,28.428
		c13.875,3.883,26.874,5.839,38.971,5.839c14.664,0,26.214-3.316,34.629-9.955c8.401-6.646,12.363-15.285,11.887-25.908
		c-0.43-9.394-3.473-17.238-9.172-23.511c-5.694-6.278-13.655-13.794-23.866-22.453c-10.22-8.667-15.441-15.146-15.634-19.392
		c-0.384-8.665,6.034-13.019,19.238-13.019c7.899,0,16.806,2.389,26.701,7.179l-2.688-27.371
		c-15.28-2.825-27.293-4.255-35.992-4.255c-12.91,0-23.676,2.82-32.265,8.508c-8.604,5.676-12.632,14.977-12.048,27.894
		c0.393,8.667,2.75,15.274,7.06,19.787c4.314,4.526,12.289,11.824,23.965,21.924c11.672,10.099,17.616,17.634,17.834,22.59
		C519.544,199.2,517.893,202.458,514.475,204.946z"/>
	<path fill="#02070C" d="M344.318,90.998c-0.256-1.531-0.567-3.031-0.936-4.502c-0.273-1.128-0.584-2.232-0.93-3.313
		c-2.072-6.572-5.299-12.388-9.67-17.457c-7.659-8.868-17.928-13.277-30.835-13.277h-75.945c0.671,14.873,1.183,30.911,1.567,48.086
		c0.38,17.172,0.575,30.85,0.645,41.046c0.058,10.19,0.014,23.781-0.093,40.784c-0.114,17.003-0.422,32.841-0.881,47.558h35.073
		c-0.418-12.754-0.817-25.374-1.223-37.861c-0.41-12.486-0.672-24.979-0.843-37.462c-0.178-12.486-0.329-26.005-0.503-40.514
		c-0.169-14.509-0.349-25.877-0.57-34.007c8.662-1.069,17.338-1.592,26.049-1.592c8.376,0,14.707,1.558,18.959,4.647
		c4.252,3.084,6.56,8.801,6.935,17.129c0.904,20.028-9.609,30.187-31.513,30.559c-6.479-0.893-11.094-1.424-13.858-1.593
		l6.743,26.037c5.825,0.529,11.414,1.065,16.762,1.598c19.343-0.174,33.686-5.882,43.002-17.14
		c4.639-5.615,8.042-11.771,10.199-18.491c0.346-1.066,0.657-2.154,0.93-3.249c0.369-1.436,0.68-2.889,0.936-4.36
		c0.808-4.575,1.087-9.385,0.86-14.419C345.047,96.364,344.766,93.635,344.318,90.998z"/>
	<path fill="#02070C" d="M630.966,122.055c8.713,0,19.2,2.023,31.479,6.106l-3.223-28.426c-10.801-3.552-22.738-5.316-35.803-5.316
		c-14.163,0.169-25.932,3.36-35.238,9.569c-9.301,6.208-16.059,14.643-20.256,25.374c-4.194,10.725-5.984,22.813-5.383,36.259
		c0.925,20.366,6.406,36.7,16.492,49.024c10.085,12.312,25.597,18.459,46.551,18.459c11.759,0,22.899-1.589,33.398-4.781
		l2.825-28.423c-10.469,3.721-20.302,5.575-29.499,5.575c-11.117,0-19.744-3.485-25.861-10.495
		c-6.127-7.005-9.609-16.608-10.498-28.825c-0.591-13.117,2.04-23.743,7.873-31.881
		C609.654,126.135,618.718,122.055,630.966,122.055z"/>
	<path fill="#02070C" d="M734.342,145.034c-10.484,3.618-20.639,6.878-30.518,9.696c-9.883,2.822-18.541,7.342-25.993,13.55
		c-7.471,6.214-10.923,15.31-10.382,27.371c0.5,11.158,4.543,20.191,12.107,27.095c7.577,6.905,18.614,10.358,33.126,10.358
		c4.206,0,11.428-0.694,21.668-2.124l4.996-23.374c-4.106,2.284-10.635,3.714-19.647,4.249
		c-12.935-0.698-19.613-5.944-20.056-15.672c-0.237-5.319,1.475-9.604,5.099-12.891c3.639-3.29,8.473-6.017,14.51-8.24
		c6.039-2.221,12.161-4.38,18.443-6.504c6.282-2.128,10.709-4.512,13.345-7.178c0.079,30.452-0.16,53.31-0.768,68.552h33.617
		c-0.511-11.33-0.77-21.887-0.823-31.617c-0.052-9.732,0.027-20.894,0.176-33.484c0.156-12.582,0.234-24.432,0.206-35.593
		c-0.562-23.212-16.957-34.809-49.217-34.809c-15.634,0-32.87,2.663-51.646,7.976l-2.264,24.708
		c5.527-2.831,12.672-5.345,21.414-7.577c8.764-2.226,17.122-3.325,25.008-3.325c14.85,0,22.465,4.694,22.89,14.091
		C749.918,136.5,744.823,141.412,734.342,145.034z"/>
	<path fill="#02070C" d="M408.465,145.034c-10.481,3.618-20.645,6.878-30.518,9.696c-9.88,2.822-18.53,7.342-25.999,13.55
		c-3.346,2.793-5.895,6.162-7.63,10.126c-0.337,0.779-0.648,1.584-0.936,2.416c-0.355,1.072-0.666,2.197-0.93,3.354
		c-0.773,3.47-1.064,7.298-0.875,11.475c0.113,2.505,0.41,4.903,0.875,7.205c0.264,1.244,0.575,2.478,0.93,3.668
		c0.288,0.913,0.599,1.805,0.936,2.689c2.029,5.167,5.15,9.684,9.365,13.532c7.577,6.905,18.608,10.358,33.123,10.358
		c4.2,0,11.425-0.694,21.679-2.124l4.979-23.374c-4.092,2.284-10.617,3.714-19.636,4.249c-12.94-0.698-19.619-5.944-20.055-15.672
		c-0.244-5.319,1.468-9.604,5.098-12.891c3.627-3.29,8.466-6.017,14.498-8.24c6.039-2.221,12.172-4.38,18.459-6.504
		c6.283-2.128,10.705-4.512,13.338-7.178c0.079,30.452-0.154,53.31-0.773,68.552h33.623c-0.512-11.33-0.773-21.887-0.832-31.617
		c-0.049-9.732,0.032-20.894,0.189-33.484c0.157-12.582,0.224-24.432,0.197-35.593c-0.558-23.212-16.96-34.809-49.213-34.809
		c-15.628,0-32.864,2.663-51.646,7.976l-2.264,24.708c5.52-2.831,12.664-5.345,21.424-7.577c8.761-2.226,17.114-3.325,25.005-3.325
		c14.847,0,22.465,4.694,22.892,14.091C424.044,136.5,418.945,141.412,408.465,145.034z"/>
	<path fill="#02070C" d="M823.297,52.449h-34.338c1.25,45.856,1.2,105.039-0.207,177.473h35.071
		C822.512,168.815,822.349,109.664,823.297,52.449z"/>
	<polygon fill="#582E7C" points="148.838,234.683 148.838,158.065 67.141,234.683 	"/>
	<polygon fill="#582E7C" points="56.655,234.683 148.838,155.125 148.838,146.242 54.529,234.683 	"/>
	<polygon fill="#582E7C" points="148.838,96.024 148.838,87.136 30.002,198.584 	"/>
	<polygon fill="#582E7C" points="0,72.045 0,165.379 108.14,72.045 	"/>
	<polygon fill="#582E7C" points="42.967,234.683 148.838,143.306 148.838,134.417 41.923,234.683 	"/>
	<polygon fill="#582E7C" points="148.838,107.849 148.838,98.962 29.912,210.492 	"/>
	<polygon fill="#582E7C" points="148.838,84.2 148.838,75.314 30.008,186.761 	"/>
	<polygon fill="#582E7C" points="135.527,72.045 127.117,72.045 30.073,163.061 	"/>
	<polygon fill="#582E7C" points="148.838,131.481 148.838,122.599 29.953,234.093 	"/>
	<polygon fill="#582E7C" points="148.838,72.375 148.838,72.045 139.719,72.045 29.958,174.98 	"/>
	<polygon fill="#582E7C" points="148.838,119.66 148.838,110.783 29.967,222.253 	"/>
	<polygon fill="#582E7C" points="121.831,72.045 114.513,72.045 29.959,151.339 	"/>
	<polygon fill="#02070C" points="148.838,158.065 188.137,121.209 148.838,155.125 56.655,234.683 29.985,257.701 54.529,234.683 
		148.838,146.242 188.137,109.388 148.838,143.306 42.967,234.683 29.871,245.986 41.923,234.683 148.838,134.417 188.137,97.561 
		148.838,131.481 29.953,234.093 148.838,122.599 188.137,85.743 148.838,119.66 29.967,222.253 148.838,110.783 188.137,73.931 
		148.838,107.849 29.912,210.492 148.838,98.962 188.137,62.108 148.838,96.024 30.002,198.584 148.838,87.136 188.137,50.281 
		148.838,84.2 30.008,186.761 148.838,75.314 188.137,38.457 148.838,72.375 29.958,174.98 139.719,72.045 188.137,26.639 
		135.527,72.045 30.073,163.061 127.117,72.045 188.137,14.816 121.831,72.045 29.959,151.339 114.513,72.045 188.137,3 
		108.14,72.045 0,165.379 0,234.683 0,297.65 67.141,234.683 	"/>
	<path d="M501.135,255.336c2.339,0,4.658,1.022,6.956,3.067l3.301-4.074c-2.771-2.653-6.161-3.98-10.171-3.98
		s-7.404,1.247-10.184,3.74c-2.779,2.494-4.169,5.819-4.169,9.976s1.333,7.481,3.998,9.976s5.847,3.741,9.548,3.741
		c4.237,0,7.979-1.591,11.222-4.773l-3.301-3.682c-2.2,2.312-4.547,3.467-7.041,3.467s-4.589-0.864-6.283-2.594
		c-1.696-1.729-2.543-3.845-2.543-6.347s0.859-4.547,2.579-6.135S498.796,255.336,501.135,255.336z"/>
	<path d="M516.688,254.325c-2.666,2.649-3.999,5.896-3.999,9.74s1.333,7.092,3.999,9.741c2.667,2.65,6.004,3.976,10.011,3.976
		c4.008,0,7.349-1.325,10.022-3.976c2.675-2.649,4.012-5.897,4.012-9.741s-1.337-7.091-4.012-9.74
		c-2.674-2.65-6.015-3.976-10.022-3.976C522.692,250.349,519.355,251.674,516.688,254.325z M535.135,264.065
		c0,2.571-0.796,4.669-2.388,6.293c-1.591,1.624-3.607,2.436-6.048,2.436s-4.452-0.812-6.035-2.436
		c-1.584-1.624-2.375-3.722-2.375-6.293c0-2.57,0.791-4.668,2.375-6.292c1.583-1.624,3.595-2.437,6.035-2.437
		s4.457,0.813,6.048,2.437C534.339,259.397,535.135,261.495,535.135,264.065z"/>
	<path d="M553.816,251.735c-1.622,0.925-2.832,2.19-3.631,3.798v-4.793h-5.599v26.65h5.599v-14.474c0-2.485,0.718-4.37,2.152-5.654
		c1.434-1.283,3.121-1.926,5.061-1.926s3.362,0.593,4.267,1.779c0.904,1.186,1.356,3.054,1.356,5.604v14.67h5.6v-14.865
		c0.064-2.355,0.807-4.142,2.225-5.36s3.081-1.828,4.987-1.828c4.075,0,6.113,2.462,6.113,7.384v14.67h5.599v-16.332
		c0-3.472-0.929-6.125-2.787-7.959c-1.858-1.833-4.287-2.75-7.286-2.75c-3.929,0-7.213,1.712-9.854,5.135
		c-1.5-3.423-4.352-5.135-8.557-5.135C557.187,250.349,555.438,250.811,553.816,251.735z"/>
	<path d="M592.891,250.74v36.356h5.599V273.38c2.674,2.934,5.688,4.401,9.047,4.401c3.357,0,6.296-1.282,8.813-3.846
		c2.519-2.563,3.778-5.89,3.778-9.98c0-4.09-1.268-7.381-3.803-9.871c-2.534-2.49-5.591-3.735-9.168-3.735
		c-3.578,0-6.467,1.711-8.668,5.134v-4.743H592.891z M600.702,257.857c1.54-1.681,3.427-2.521,5.66-2.521s4.152,0.84,5.758,2.521
		c1.605,1.68,2.408,3.79,2.408,6.33s-0.819,4.61-2.457,6.209s-3.558,2.397-5.758,2.397s-4.071-0.807-5.611-2.422
		s-2.311-3.685-2.311-6.209C598.392,261.639,599.162,259.537,600.702,257.857z"/>
	<path d="M648.26,277.39v-26.65h-5.599v14.458c0,2.482-0.718,4.37-2.151,5.66c-1.435,1.29-3.122,1.936-5.062,1.936
		c-4.075-0.016-6.112-2.482-6.112-7.4V250.74h-5.599v16.333c0,3.472,0.925,6.124,2.774,7.958s4.274,2.751,7.274,2.751
		c1.841,0,3.557-0.465,5.146-1.394c1.589-0.928,2.832-2.2,3.729-3.815v4.817H648.26z"/>
	<path d="M660.817,242.378h-5.599v8.361h-3.374v4.793h3.374v13.214c0,2.77,0.84,4.968,2.52,6.595s3.708,2.44,6.087,2.44l0.049,0.024
		c2.38,0,4.548-0.88,6.503-2.639l-2.322-3.917c-1.092,1.159-2.241,1.738-3.447,1.738s-2.14-0.37-2.8-1.11s-0.99-1.738-0.99-2.994
		v-13.352h7.018v-4.793h-7.018V242.378z"/>
	<path d="M693.963,277.39v-17.164c0-3.406-0.992-5.904-2.976-7.493c-1.984-1.59-4.546-2.384-7.685-2.384
		c-4.091,0-7.759,1.321-11.002,3.964l2.494,3.466c2.673-1.759,5.248-2.638,7.726-2.638c3.928,0,5.893,1.734,5.893,5.203v0.982
		h-7.262c-3.293,0-5.909,0.648-7.849,1.944c-1.939,1.295-2.909,3.256-2.909,5.88s0.908,4.719,2.727,6.283
		c1.817,1.564,4.111,2.348,6.882,2.348c0.033,0,0.058,0,0.073,0c3.674,0,6.6-1.313,8.777-3.937v3.545H693.963z M688.364,267.45
		c0,1.685-0.669,3.029-2.005,4.033c-1.337,1.004-2.897,1.506-4.683,1.506c-1.784,0-3.178-0.34-4.181-1.02
		c-1.002-0.681-1.504-1.669-1.504-2.965c0-2.526,2.021-3.79,6.063-3.79h6.309V267.45z"/>
	<path d="M724.858,277.39V240.3h-5.599v14.614c-2.172-3.044-5.036-4.565-8.596-4.565c-3.559,0-6.622,1.244-9.19,3.732
		s-3.853,5.787-3.853,9.898s1.25,7.439,3.749,9.984s5.435,3.817,8.805,3.817c3.983,0,7.012-1.481,9.085-4.444v4.053H724.858z
		 M717.056,270.378c-1.535,1.61-3.408,2.415-5.62,2.415s-4.134-0.797-5.767-2.392c-1.633-1.594-2.448-3.657-2.448-6.19
		s0.8-4.646,2.399-6.337c1.6-1.692,3.521-2.538,5.767-2.538s4.134,0.846,5.669,2.538c1.534,1.691,2.302,3.795,2.302,6.313
		C719.357,266.704,718.59,268.767,717.056,270.378z"/>
	<path d="M732.761,254.325c-2.666,2.649-3.999,5.896-3.999,9.74s1.333,7.092,3.999,9.741c2.667,2.65,6.004,3.976,10.011,3.976
		c4.008,0,7.349-1.325,10.022-3.976c2.675-2.649,4.012-5.897,4.012-9.741s-1.337-7.091-4.012-9.74
		c-2.674-2.65-6.015-3.976-10.022-3.976C738.765,250.349,735.428,251.674,732.761,254.325z M751.207,264.065
		c0,2.571-0.796,4.669-2.388,6.293c-1.591,1.624-3.607,2.436-6.048,2.436s-4.452-0.812-6.035-2.436
		c-1.584-1.624-2.375-3.722-2.375-6.293c0-2.57,0.791-4.668,2.375-6.292c1.583-1.624,3.595-2.437,6.035-2.437
		s4.457,0.813,6.048,2.437C750.411,259.397,751.207,261.495,751.207,264.065z"/>
	<path d="M760.658,250.74v26.65h5.599v-11.483c0-3.049,0.701-5.479,2.103-7.29c1.402-1.812,3.488-2.718,6.26-2.718
		c0.098,0,0.203,0,0.317,0l-0.049-5.55c-1.744,0.032-3.395,0.574-4.951,1.627c-1.557,1.054-2.783,2.394-3.68,4.021v-5.258H760.658z"
		/>
	<path d="M796.421,252.733c-1.984-1.59-4.546-2.384-7.685-2.384c-4.091,0-7.759,1.321-11.002,3.964l2.494,3.466
		c2.673-1.759,5.248-2.638,7.726-2.638c3.928,0,5.893,1.734,5.893,5.203v0.982h-7.262c-3.293,0-5.909,0.648-7.849,1.944
		c-1.939,1.295-2.909,3.256-2.909,5.88s0.908,4.719,2.727,6.283c1.817,1.564,4.111,2.348,6.882,2.348c0.033,0,0.058,0,0.073,0
		c3.674,0,6.6-1.313,8.777-3.937v3.545h5.11v-17.164C799.396,256.82,798.404,254.322,796.421,252.733z M793.798,267.45
		c0,1.685-0.669,3.029-2.005,4.033c-1.337,1.004-2.897,1.506-4.683,1.506c-1.784,0-3.178-0.34-4.181-1.02
		c-1.002-0.681-1.504-1.669-1.504-2.965c0-2.526,2.021-3.79,6.063-3.79h6.309V267.45z"/>
	<path d="M817.089,272.103c-0.733,0.591-1.735,0.886-3.007,0.886c-2.918-0.016-5.926-1.188-9.022-3.516l-2.689,4.363
		c1.598,1.242,3.439,2.211,5.526,2.904c2.086,0.693,4.099,1.041,6.039,1.041c2.883,0,5.246-0.751,7.089-2.251
		c1.843-1.501,2.764-3.516,2.764-6.047c0-2.53-0.919-4.378-2.758-5.543c-0.911-0.583-1.765-1.035-2.56-1.358
		c-0.796-0.323-1.613-0.603-2.453-0.839c-0.839-0.237-1.797-0.507-2.872-0.81c-1.074-0.304-1.906-0.604-2.494-0.904
		c-0.859-0.415-1.288-1.063-1.288-1.945c0-0.981,0.419-1.717,1.259-2.208c0.84-0.49,1.928-0.735,3.265-0.735
		c2.535,0,4.89,0.716,7.065,2.148l2.121-4.185c-2.763-1.837-5.678-2.756-8.744-2.756s-5.562,0.748-7.484,2.243
		c-1.924,1.496-2.885,3.493-2.885,5.991c0,3.528,2.759,6.047,8.276,7.557c0.146,0.029,0.351,0.088,0.612,0.175
		c3.558,1.02,5.338,2.201,5.341,3.548C818.189,270.765,817.822,271.512,817.089,272.103z"/>
</g>
</svg>
